<?xml version="1.0" standalone="no"?>
   <!DOCTYPE svg PUBLIC "-//W3C//DTD SVG 1.1//EN" 
   "http://www.w3.org/Graphics/SVG/1.1/DTD/svg11.dtd"><svg id="svg" version="1.1" width="408" height="1224" xmlns="http://www.w3.org/2000/svg"><path d="M211.065 69.005 C 205.920 71.059,197.271 80.621,186.913 95.708 C 186.457 96.372,183.332 93.417,179.967 89.140 C 174.565 82.272,172.824 81.722,165.048 84.433 C 123.854 98.793,92.796 207.357,109.550 278.423 C 117.299 311.292,152.051 352.196,177.642 358.569 C 182.121 359.684,186.438 362.825,187.237 365.548 C 196.208 396.146,198.601 468.828,192.684 531.000 C 186.090 600.289,183.116 661.061,182.972 729.485 C 182.893 766.876,181.550 821.551,179.986 850.985 C 178.423 880.418,177.011 909.225,176.849 915.000 C 176.624 923.028,174.180 917.731,166.468 892.500 C 157.427 862.919,156.356 855.615,156.132 822.000 C 155.617 744.447,148.521 714.813,105.132 609.000 C 83.943 557.328,75.681 532.985,72.803 513.750 C 70.027 495.199,66.082 504.085,67.476 525.750 C 68.246 537.713,69.573 561.000,70.425 577.500 C 74.103 648.733,92.753 716.893,130.682 797.717 C 141.307 820.358,150.000 840.545,150.000 842.577 C 150.000 844.609,156.253 867.935,163.895 894.411 L 177.790 942.551 174.269 1000.026 C 172.332 1031.636,168.908 1071.675,166.660 1089.000 C 164.413 1106.325,161.812 1128.600,160.882 1138.500 C 157.689 1172.482,164.237 1135.422,169.363 1090.500 C 174.934 1041.682,179.409 1027.282,195.661 1005.885 C 202.184 997.297,206.629 988.826,205.538 987.061 C 204.447 985.296,204.839 984.222,206.409 984.676 C 207.979 985.129,215.279 977.400,222.631 967.500 C 229.982 957.600,247.060 936.675,260.581 921.000 C 286.286 891.200,313.204 853.528,329.713 824.250 C 335.063 814.763,338.998 807.000,338.456 807.000 C 335.966 807.000,298.518 841.486,270.000 870.042 C 238.597 901.488,216.256 929.736,204.786 952.500 C 201.461 959.100,194.186 978.675,188.620 996.000 C 180.191 1022.237,178.341 1025.841,177.547 1017.574 C 176.662 1008.362,181.472 938.903,184.650 915.000 C 185.781 906.490,185.470 905.637,183.012 910.500 C 180.808 914.858,180.371 910.344,181.415 894.000 C 182.888 870.943,184.676 814.950,187.736 696.000 C 190.941 571.429,200.489 444.463,208.718 417.000 C 216.660 390.494,224.109 378.000,231.970 378.000 C 249.956 378.000,286.947 336.293,303.009 297.905 C 322.940 250.269,325.759 220.462,316.432 155.955 C 308.652 102.147,299.441 87.024,283.544 101.959 L 277.201 107.917 266.050 94.577 C 251.330 76.966,223.520 64.033,211.065 69.005 M242.887 79.443 C 259.330 87.775,266.327 95.093,255.026 92.138 C 241.038 88.479,212.794 110.657,189.361 143.700 L 180.000 156.900 180.000 146.680 C 180.000 141.059,178.742 132.076,177.205 126.716 C 174.858 118.532,175.495 115.654,181.182 108.736 C 184.907 104.206,192.304 94.088,197.621 86.250 C 206.050 73.825,208.627 72.000,217.744 72.000 C 223.494 72.000,234.809 75.349,242.887 79.443 M167.987 102.000 C 168.030 106.125,170.075 116.127,172.532 124.227 C 178.570 144.129,178.152 157.461,170.891 176.565 C 151.086 228.673,151.614 279.175,172.500 330.578 C 181.549 352.846,176.829 350.255,164.219 326.031 C 150.124 298.955,143.967 280.660,139.303 252.000 L 135.154 226.500 136.478 249.000 C 138.269 279.445,153.363 320.199,172.865 347.250 C 179.898 357.005,172.468 355.875,162.995 345.750 C 158.750 341.213,154.171 337.810,152.819 338.190 C 147.877 339.577,122.704 307.044,116.303 291.000 C 110.569 276.626,109.753 269.088,109.969 232.500 C 110.336 170.295,123.500 126.572,150.026 99.458 C 163.525 85.659,167.822 86.267,167.987 102.000 M178.274 92.750 C 182.426 97.338,182.802 99.765,180.134 104.750 C 175.631 113.163,171.000 112.653,171.000 103.745 C 171.000 99.755,170.181 94.355,169.179 91.745 C 166.668 85.202,171.973 85.788,178.274 92.750 M268.069 101.673 C 283.477 115.027,296.614 156.027,299.032 198.308 C 301.734 245.537,296.240 283.054,281.502 318.000 C 269.111 347.381,259.381 360.389,242.340 370.355 C 233.885 375.299,234.892 373.512,249.496 357.658 C 260.505 345.706,268.731 333.220,272.851 322.209 C 281.699 298.561,278.700 298.765,268.613 322.499 C 263.737 333.971,254.335 348.417,245.889 357.413 C 232.137 372.061,230.961 372.663,219.991 370.652 C 199.328 366.866,191.273 360.060,179.619 336.542 C 168.541 314.185,158.993 275.580,158.998 253.159 C 159.002 229.782,170.256 179.942,174.119 186.192 C 175.446 188.340,178.243 183.278,181.051 173.646 C 185.802 157.352,196.962 138.045,211.195 121.500 C 218.138 113.428,217.742 115.130,207.356 138.000 C 193.863 167.712,189.885 182.630,187.761 211.500 C 186.303 231.318,186.380 231.656,189.118 217.500 C 190.714 209.250,193.473 194.400,195.249 184.500 C 198.937 163.939,211.052 133.517,223.113 114.531 C 235.696 94.724,254.008 89.486,268.069 101.673 M299.759 103.209 C 304.831 109.321,308.471 123.613,313.527 157.278 C 319.231 195.255,319.160 233.200,313.339 257.899 C 308.780 277.244,283.238 335.238,280.488 332.488 C 279.692 331.692,282.429 324.015,286.571 315.428 C 298.708 290.271,301.448 272.266,301.475 217.500 C 301.497 171.765,300.768 164.332,294.408 145.500 C 290.507 133.950,285.339 121.348,282.923 117.496 C 278.996 111.237,279.082 109.881,283.730 104.746 C 289.897 97.931,294.974 97.444,299.759 103.209 M275.238 245.082 C 272.321 276.350,247.256 336.111,227.734 358.345 C 222.588 364.205,219.531 369.000,220.939 369.000 C 227.829 369.000,250.286 333.257,263.443 301.352 C 274.288 275.051,283.618 234.418,279.708 230.508 C 277.916 228.716,276.263 234.104,275.238 245.082 M131.793 296.278 C 135.104 307.824,150.097 336.903,151.840 335.160 C 152.630 334.370,149.164 325.631,144.138 315.741 C 139.112 305.850,135.000 295.562,135.000 292.879 C 135.000 290.195,133.744 288.000,132.209 288.000 C 130.589 288.000,130.415 291.472,131.793 296.278 M218.134 375.000 C 223.033 375.000,223.273 373.941,214.420 391.391 C 210.265 399.581,206.049 411.393,205.050 417.641 C 202.156 435.738,199.022 430.915,196.865 405.041 C 195.766 391.864,194.066 377.080,193.088 372.188 L 191.309 363.294 202.789 369.147 C 209.103 372.366,216.008 375.000,218.134 375.000 M269.000 404.000 C 267.900 405.100,266.956 408.813,266.902 412.250 C 266.807 418.320,262.612 430.888,249.295 465.000 C 231.294 511.110,219.715 580.623,215.935 665.281 C 214.333 701.152,212.347 734.550,211.522 739.500 C 210.696 744.450,208.670 768.589,207.018 793.143 C 204.654 828.293,202.100 843.992,195.008 866.975 C 190.053 883.030,186.081 898.040,186.181 900.333 C 186.280 902.625,191.070 888.975,196.825 870.000 C 202.581 851.025,211.911 824.700,217.559 811.500 C 238.547 762.449,252.358 707.832,257.890 652.003 C 259.498 635.776,262.283 586.725,264.079 543.000 C 265.875 499.275,268.683 450.179,270.320 433.897 C 273.236 404.876,273.020 399.980,269.000 404.000 M262.818 480.750 C 261.671 497.663,259.496 543.900,257.983 583.500 C 255.262 654.745,248.934 706.171,238.232 744.000 C 232.633 763.791,219.876 799.967,216.146 806.633 C 210.750 816.275,208.984 794.134,212.476 760.609 C 214.372 742.399,217.334 700.500,219.058 667.500 C 222.702 597.736,233.219 527.100,246.240 484.935 C 251.262 468.674,255.909 455.909,256.569 456.569 C 257.228 457.228,255.191 472.051,252.042 489.511 C 246.271 521.515,245.541 528.758,239.845 610.500 C 234.616 685.540,228.257 737.885,220.384 770.700 C 216.267 787.859,213.428 802.428,214.075 803.075 C 216.262 805.262,230.940 739.681,234.013 714.000 C 238.296 678.199,242.706 627.146,246.062 574.500 C 248.692 533.254,260.395 450.000,263.563 450.000 C 264.300 450.000,263.964 463.838,262.818 480.750 M112.522 680.911 C 128.599 725.086,143.585 778.813,144.344 795.000 C 144.598 800.417,145.088 800.987,146.106 797.054 C 148.627 787.314,138.098 746.823,115.539 679.500 C 95.901 620.898,81.558 569.558,86.089 574.089 C 87.703 575.703,93.048 588.391,122.844 661.331 C 131.568 682.688,141.080 711.748,143.981 725.909 C 149.809 754.354,154.706 825.603,149.967 813.000 C 147.354 806.052,147.214 806.225,148.068 815.344 C 149.436 829.975,145.588 823.996,127.085 782.746 C 92.073 704.688,76.494 642.896,73.449 570.000 L 71.883 532.500 83.758 583.500 C 90.288 611.550,103.233 655.385,112.522 680.911 M318.527 835.175 C 327.484 829.639,280.996 893.503,251.351 927.460 C 238.886 941.738,224.418 959.625,219.200 967.210 C 206.200 986.104,204.989 984.517,216.560 963.750 C 227.952 943.303,251.917 911.197,282.060 876.000 C 310.203 843.140,316.415 835.068,301.835 850.307 C 262.126 891.811,225.186 940.177,206.703 974.866 C 199.661 988.084,193.404 998.404,192.799 997.799 C 191.318 996.318,203.301 961.069,209.170 949.646 C 219.243 930.039,248.844 894.061,280.386 863.089 C 298.540 845.264,313.870 832.110,314.453 833.858 C 315.036 835.607,316.869 836.199,318.527 835.175 " stroke="none" fill="black" fill-rule="evenodd"/></svg>